<svg xmlns="http://www.w3.org/2000/svg" xmlns:xlink="http://www.w3.org/1999/xlink" version="1.1" enable-background="new 0 0 100 100" xml:space="preserve" width="100" height="100" style=""><rect id="backgroundrect" width="100%" height="100%" x="0" y="0" fill="none" stroke="none"/><g class="currentLayer" style=""><title>Layer 1</title><path d="M69.843,50.633h-5.084c-3.165-6.807-8.671-11.228-14.758-11.228c-6.088,0-11.594,4.421-14.759,11.228h-5.084  c-0.829,0-1.5,0.672-1.5,1.5s0.671,1.5,1.5,1.5h3.9c-0.549,1.653-0.983,3.4-1.256,5.241c-0.121,0.819,0.445,1.582,1.264,1.703  c0.823,0.133,1.583-0.444,1.704-1.264c0.3-2.024,0.802-3.925,1.457-5.681h25.549c0.653,1.756,1.156,3.656,1.456,5.681  c0.11,0.745,0.75,1.28,1.481,1.28c0.073,0,0.147-0.005,0.222-0.017c0.819-0.121,1.386-0.884,1.264-1.703  c-0.272-1.841-0.707-3.588-1.256-5.241h3.9c0.828,0,1.5-0.672,1.5-1.5S70.671,50.633,69.843,50.633z M38.577,50.633  c2.706-5.037,6.88-8.228,11.424-8.228s8.718,3.19,11.423,8.228H38.577z" id="svg_1" class="selected" stroke-opacity="1" stroke="#f21962" fill-opacity="1" fill="#f21962"/></g></svg>